<svg width="24" height="24" viewBox="0 0 24 24" fill="none" xmlns="http://www.w3.org/2000/svg">
<path fill-rule="evenodd" clip-rule="evenodd" d="M4.68897 3.88892C3.0702 3.88643 2 5.25623 2 6.69427V18C2 19.6569 3.34315 21 5 21H19C20.6569 21 22 19.6569 22 18V6.69427C22 5.25623 20.9298 3.88643 19.311 3.88892C17.8007 3.89124 15.4847 4.13025 13.448 5.36931C12.6282 5.86806 11.3718 5.86806 10.552 5.36931C8.51526 4.13025 6.19925 3.89124 4.68897 3.88892ZM4 6.69427C4 6.17695 4.3493 5.8884 4.68589 5.88892C6.03769 5.891 7.92724 6.11355 9.51248 7.07796C9.96288 7.35196 10.4705 7.54135 11 7.64611V19H5C4.44772 19 4 18.5523 4 18V6.69427ZM13 19H19C19.5523 19 20 18.5523 20 18V6.69427C20 6.17695 19.6507 5.8884 19.3141 5.88892C17.9623 5.891 16.0728 6.11355 14.4875 7.07796C14.0371 7.35196 13.5295 7.54135 13 7.64611V19Z" fill="#040921"/>
</svg>
